<?xml version="1.0" encoding="UTF-8"?>
<svg id="Layer_1" xmlns="http://www.w3.org/2000/svg" version="1.1" viewBox="0 0 1728 1117">
  <!-- Generator: Adobe Illustrator 29.7.0, SVG Export Plug-In . SVG Version: 2.1.1 Build 138)  -->
  <defs>
    <style>
      .st0 {
        fill: #121212;
      }
    </style>
  </defs>
  <g>
    <path class="st0" d="M956.9,612.2v-107.4l-92.9-53.7-92.9,53.7v107.4l92.9,53.7,92.9-53.7ZM934.2,604.9c0,.3-.1.5-.4.7l-58.9,34.2c-.5.3-1.2,0-1.2-.7v-79.2c0-.3.2-.6.4-.7l58.9-31.4c.5-.3,1.1.1,1.1.7v76.4ZM862.8,639.8l-66.9-38.6c-1.8-1-2.9-3-2.9-5.1v-75.3c0-2.1,1.1-4,2.9-5.1l65.1-37.6c1.8-1,4-1,5.9,0l67.1,38.7c.5.3.5,1,0,1.3-4,2.4-6,3.4-10.4,5.9-.2.1-.5.1-.8,0l-58.9-34-59.3,34.2v68.5l58.9,34c.2.1.4.4.4.7v11.7c0,.6-.6,1-1.2.7Z"/>
    <path class="st0" d="M749.6,629.1c-2.4-1.4-3.9-4-3.9-6.8v71.7h118.3c-1.3,0-2.7-.3-3.9-1l-110.5-63.8Z"/>
    <path class="st0" d="M978.4,629.1l-110.5,63.8c-1.2.7-2.6,1-3.9,1h118.3v-71.7c0,2.8-1.5,5.4-3.9,6.8Z"/>
    <path class="st0" d="M864,423c1.3,0,2.7.3,3.9,1l110.5,63.8c2.4,1.4,3.9,4,3.9,6.8v-71.7h-118.3Z"/>
    <path class="st0" d="M745.7,494.7c0-2.8,1.5-5.4,3.9-6.8l110.5-63.8c1.2-.7,2.6-1,3.9-1h-118.3v71.7Z"/>
  </g>
  <rect class="st0" y="1.4" width="745.7" height="1117"/>
  <rect class="st0" x="982.3" y="1.4" width="745.7" height="1117"/>
  <rect class="st0" x="490.9" y="-1.4" width="745.7" height="424.4"/>
  <rect class="st0" x="491.1" y="694" width="745.7" height="424.4"/>
</svg>