<?xml version="1.0" encoding="UTF-8"?>
<svg id="Layer_1" xmlns="http://www.w3.org/2000/svg" version="1.1" viewBox="0 0 236.5 271">
  <!-- Generator: Adobe Illustrator 29.7.0, SVG Export Plug-In . SVG Version: 2.1.1 Build 138)  -->
  <defs>
    <style>
      .st0 {
        fill: #121212;
      }
    </style>
  </defs>
  <path class="st0" d="M211.2,189.2v-107.4L118.3,28.1,25.4,81.8v107.4l92.9,53.7,92.9-53.7ZM188.5,181.9c0,.3-.1.5-.4.7l-58.9,34.2c-.5.3-1.2,0-1.2-.7v-79.2c0-.3.2-.6.4-.7l58.9-31.4c.5-.3,1.1.1,1.1.7v76.4ZM117.1,216.8l-66.9-38.6c-1.8-1-2.9-3-2.9-5.1v-75.3c0-2.1,1.1-4,2.9-5.1l65.1-37.6c1.8-1,4-1,5.9,0l67.1,38.7c.5.3.5,1,0,1.3-4,2.4-6,3.4-10.4,5.9-.2.1-.5.1-.8,0l-58.9-34-59.3,34.2v68.5l58.9,34c.2.1.4.4.4.7v11.7c0,.6-.6,1-1.2.7Z"/>
  <path class="st0" d="M3.9,206.1c-2.4-1.4-3.9-4-3.9-6.8v71.7h118.3c-1.3,0-2.7-.3-3.9-1L3.9,206.1Z"/>
  <path class="st0" d="M232.6,206.1l-110.5,63.8c-1.2.7-2.6,1-3.9,1h118.3v-71.7c0,2.8-1.5,5.4-3.9,6.8Z"/>
  <path class="st0" d="M118.3,0c1.3,0,2.7.3,3.9,1l110.5,63.8c2.4,1.4,3.9,4,3.9,6.8V0h-118.3Z"/>
  <path class="st0" d="M0,71.7c0-2.8,1.5-5.4,3.9-6.8L114.4,1c1.2-.7,2.6-1,3.9-1H0v71.7Z"/>
</svg>