<svg width="30" height="34" viewBox="0 0 30 34" fill="white" xmlns="http://www.w3.org/2000/svg">
<path fill-rule="evenodd" clip-rule="evenodd" d="M15.0961 3.77674L3.73899 10.3406V23.4682L15.0961 30.0321L26.4533 23.4682V10.3406L15.0961 3.77674ZM15.5731 0.468757C15.2779 0.298175 14.9143 0.298175 14.6191 0.468757L1.11564 8.27308C0.820493 8.44366 0.638672 8.75891 0.638672 9.10007V24.7087C0.638672 25.0499 0.820493 25.3651 1.11564 25.5357L14.6191 33.34C14.9143 33.5106 15.2779 33.5106 15.5731 33.34L29.0766 25.5357C29.3718 25.3651 29.5536 25.0499 29.5536 24.7087V9.10007C29.5536 8.75891 29.3718 8.44366 29.0766 8.27308L15.5731 0.468757Z" fill="white"/>
<path d="M15.0961 8.5316L7.85257 12.718V21.0908L15.0484 25.2496C15.0779 25.2667 15.0961 25.2982 15.0961 25.3323L15.0961 26.7658C15.0961 26.8393 15.0166 26.8853 14.953 26.8485L6.77938 22.1245C6.55802 21.9966 6.42165 21.7602 6.42165 21.5043V12.3045C6.42165 12.0486 6.55802 11.8122 6.77938 11.6843L14.7384 7.08436C14.9598 6.95643 15.2325 6.95643 15.4538 7.08436L23.6601 11.81C23.7232 11.8464 23.7238 11.9373 23.6612 11.9745C23.1769 12.262 22.9289 12.3899 22.3871 12.6916C22.3578 12.7079 22.3219 12.7077 22.2928 12.6909L15.0961 8.5316Z" fill="white"/>
<path d="M16.2886 17.0811C16.2886 17.0458 16.308 17.0134 16.3391 16.9968L23.5414 13.1594C23.6049 13.1255 23.6816 13.1716 23.6816 13.2437V22.579C23.6816 22.613 23.6635 22.6445 23.6341 22.6616L16.4318 26.8479C16.3683 26.8849 16.2886 26.8389 16.2886 26.7653V17.0811Z" fill="white"/>
</svg>
